<svg xmlns="http://www.w3.org/2000/svg" width="46" height="44" viewBox="0 0 46 44">
    <g fill="none" fill-rule="evenodd" transform="translate(-2 -2)">
        <circle cx="29" cy="27" r="19" fill="#FFD6BD" opacity=".352"/>
        <path d="M0 0h46v46H0z"/>
        <g fill="#F16E20">
            <path fill-rule="nonzero" d="M42.12 6.291H27.816v-1.43A2.87 2.87 0 0 0 24.956 2H4.93a2.87 2.87 0 0 0-2.86 2.86v15.735c0 7.867 7.508 7.867 10.012 7.867.429 0 .715-.287.715-.716s-.286-.715-.715-.715a2.87 2.87 0 0 1-2.861-2.86v-.287c.214-1.501 1.502-2.574 3.004-2.574h9.869v1.43h-6.437c-.429 0-.715.286-.715.715 0 1.645.644 3.219 1.717 4.363a6.914 6.914 0 0 0-.286 2.074c0 2.86 1.716 5.435 4.29 6.58 0 .429-.214 1.287-2.145 1.287a3.541 3.541 0 0 0-3.576 3.576v3.576h1.43v-3.576c0-1.145.859-2.074 2.003-2.146l3.504 1.717c.287.143.644.286.93.357v3.648h1.43v-3.648c.358-.071.644-.143.93-.286l3.505-1.716a2.125 2.125 0 0 1 2.002 2.145v3.576h1.43v-3.576a3.541 3.541 0 0 0-3.575-3.576c-1.931 0-2.146-.858-2.146-1.287 2.718-1.144 4.363-3.862 4.291-6.794v-.5c0-1.002-.214-2.003-.715-2.861h4.792c1.502 0 2.789 1.072 3.003 2.574.143 1.574-1 3.004-2.574 3.147h-.286c-.43 0-.715.286-.715.715 0 .43.286.715.715.715 2.503 0 10.012 0 10.012-7.867V9.152c.072-1.574-1.216-2.86-2.789-2.86zM12.226 19.88c-2.217 0-4.148 1.645-4.434 3.862-.072 1.073.214 2.146.858 3.004-3.505-.715-5.15-2.646-5.15-6.15V4.86c0-.787.644-1.43 1.43-1.43h20.026c.786 0 1.43.643 1.43 1.43v13.588c0 .787-.644 1.43-1.43 1.43h-12.73zm4.22 4.291h7.795c2.503 0 4.577 1.86 4.934 4.292H21.38c-2.503 0-4.577-1.86-4.935-4.292zm9.01 11.086a.687.687 0 0 0-.5.643v.43a2.517 2.517 0 0 0 1.43 2.431l-1.86.93a2.613 2.613 0 0 1-2.073 0l-1.788-.93a2.517 2.517 0 0 0 1.43-2.432v-.357a.687.687 0 0 0-.5-.644c-2.29-.858-3.791-3.004-3.791-5.435 0-.358 0-.715.071-1.001 1.002.643 2.218 1 3.505 1h7.867c0 2.432-1.502 4.578-3.79 5.365zM43.55 25.6c0 3.504-1.645 5.435-5.149 6.15.644-.858.93-1.93.858-3.003-.286-2.217-2.145-3.862-4.434-3.862h-5.793a6.394 6.394 0 0 0-4.791-2.146h-.716v-1.43h1.43a2.87 2.87 0 0 0 2.861-2.86V7.72H42.12c.787 0 1.43.644 1.43 1.43v16.45z"/>
            <path fill-rule="nonzero" d="M18.52 9.867h-.716c-.43 0-.715-.286-.715-.715V7.006c0-1.216-.93-2.145-2.146-2.145-1.216 0-2.145.93-2.145 2.145v2.146c0 .429-.286.715-.715.715 0-.43-.287-.715-.716-.715h-2.86c-.43 0-.715.286-.715.715v7.867c0 .429.286.715.715.715h2.86c.43 0 .716-.286.716-.715h6.436c1.216 0 2.146-.93 2.146-2.146v-3.576c0-1.215-.93-2.145-2.146-2.145zm-7.868 7.152h-1.43v-6.437h1.43v6.437zm8.582-1.43c0 .428-.286.715-.715.715h-6.436v-5.007c1.215 0 2.145-.93 2.145-2.145V7.006c0-.429.286-.715.715-.715.43 0 .715.286.715.715v2.146c0 1.216.93 2.145 2.146 2.145h.715c.43 0 .715.286.715.715v3.576zM41.405 9.152h-2.86c-.43 0-.716.286-.716.715h-6.437c-1.215 0-2.145.93-2.145 2.145v3.576c0 1.216.93 2.146 2.145 2.146h.716c.429 0 .715.286.715.715v2.146c0 1.215.93 2.145 2.145 2.145 1.216 0 2.146-.93 2.146-2.145v-2.146c0-.429.286-.715.715-.715 0 .429.286.715.715.715h2.86c.43 0 .716-.286.716-.715V9.867c0-.43-.286-.715-.715-.715zm-3.576 7.152c-1.216 0-2.146.93-2.146 2.145v2.146c0 .429-.286.715-.715.715s-.715-.286-.715-.715v-2.146c0-1.216-.93-2.145-2.145-2.145h-.716c-.429 0-.715-.287-.715-.716v-3.576c0-.429.286-.715.715-.715h6.437v5.007zm2.86.715h-1.43v-6.437h1.43v6.437z"/>
            <path d="M28.532 20.595h2.861v1.43h-2.861zM21.38 5.576V4.86h-1.43v.715h-.716v1.43h.716v.715h1.43v-.715h.715v-1.43z"/>
        </g>
    </g>
</svg>
