<svg xmlns="http://www.w3.org/2000/svg" width="38" height="38" viewBox="0 0 38 38">
    <g fill="none" fill-rule="evenodd" transform="matrix(-1 0 0 1 37 1)">
        <ellipse cx="18" cy="17.647" stroke="#F16E20" stroke-width="2" rx="18" ry="17.647"/>
        <path fill="#4E4E4E" d="M26.055 18.273a.7.7 0 0 1-.161.247l-5.613 5.502a.73.73 0 0 1-1.021 0 .697.697 0 0 1 0-1l4.424-4.337H10.588a.7.7 0 0 1-.706-.692c0-.383.317-.692.706-.692h13.098l-4.426-4.34a.698.698 0 0 1 0-1 .732.732 0 0 1 1.02 0l5.614 5.503a.692.692 0 0 1 .162.25c.038.085.062.18.062.28 0 .099-.024.193-.063.279z"/>
    </g>
</svg>
